<svg width="42" height="26" viewBox="0 0 42 26" fill="none" xmlns="http://www.w3.org/2000/svg">
<rect width="42" height="26" rx="4" fill="#F6F6F6"/>
<path d="M14.414 18.14C13.5087 18.14 12.7993 17.8927 12.286 17.398C11.782 16.894 11.53 16.138 11.53 15.13V10.874C11.53 10.37 11.6 9.93133 11.74 9.558C11.88 9.18467 12.076 8.872 12.328 8.62C12.58 8.368 12.8787 8.18133 13.224 8.06C13.5787 7.92933 13.9613 7.864 14.372 7.864C14.7733 7.864 15.1373 7.91067 15.464 8.004C15.7907 8.09733 16.0707 8.25133 16.304 8.466C16.5467 8.68067 16.7333 8.96067 16.864 9.306C17.004 9.65133 17.0787 10.0713 17.088 10.566V10.762H15.352V10.538C15.3333 10.062 15.2447 9.73067 15.086 9.544C14.9367 9.35733 14.6987 9.264 14.372 9.264C14.0267 9.264 13.7653 9.39 13.588 9.642C13.4107 9.894 13.322 10.286 13.322 10.818V15.144C13.322 15.676 13.4013 16.0727 13.56 16.334C13.728 16.586 14.008 16.712 14.4 16.712C14.7173 16.712 14.9693 16.614 15.156 16.418C15.3427 16.222 15.436 15.872 15.436 15.368V15.06H17.116V15.382C17.116 15.8767 17.0507 16.3013 16.92 16.656C16.7893 17.0013 16.6027 17.286 16.36 17.51C16.1267 17.7247 15.842 17.8833 15.506 17.986C15.1793 18.0887 14.8153 18.14 14.414 18.14ZM20.8545 18.14C19.9678 18.14 19.2631 17.8973 18.7405 17.412C18.2178 16.9267 17.9565 16.1847 17.9565 15.186V10.832C17.9565 10.328 18.0265 9.894 18.1665 9.53C18.3065 9.15667 18.5025 8.84867 18.7545 8.606C19.0158 8.354 19.3238 8.16733 19.6785 8.046C20.0331 7.92467 20.4251 7.864 20.8545 7.864C21.7225 7.864 22.4225 8.10667 22.9545 8.592C23.4865 9.068 23.7525 9.81 23.7525 10.818V15.13C23.7525 15.634 23.6825 16.0773 23.5425 16.46C23.4118 16.8333 23.2205 17.146 22.9685 17.398C22.7165 17.6407 22.4085 17.8273 22.0445 17.958C21.6898 18.0793 21.2931 18.14 20.8545 18.14ZM20.8545 16.712C21.5918 16.712 21.9605 16.194 21.9605 15.158V10.818C21.9605 10.314 21.8671 9.93133 21.6805 9.67C21.5031 9.39933 21.2278 9.264 20.8545 9.264C20.1078 9.264 19.7345 9.782 19.7345 10.818V15.172C19.7345 16.1987 20.1078 16.712 20.8545 16.712ZM27.2844 7.99C28.3017 7.99 29.0811 8.22333 29.6224 8.69C30.1731 9.14733 30.4484 9.92667 30.4484 11.028V14.934C30.4484 16.0167 30.1777 16.8007 29.6364 17.286C29.1044 17.762 28.3297 18 27.3124 18H24.8624V7.99H27.2844ZM26.6264 9.362V16.614H27.2424C27.7651 16.614 28.1291 16.488 28.3344 16.236C28.5397 15.984 28.6424 15.5453 28.6424 14.92V11.042C28.6424 10.4353 28.5397 10.006 28.3344 9.754C28.1384 9.49267 27.7744 9.362 27.2424 9.362H26.6264Z" fill="#949494"/>
</svg>
